<?xml version="1.0" encoding="UTF-8" standalone="no"?>
<svg width="100px" height="100px" viewBox="0 0 100 100" version="1.1" xmlns="http://www.w3.org/2000/svg" xmlns:xlink="http://www.w3.org/1999/xlink" xmlns:sketch="http://www.bohemiancoding.com/sketch/ns">
    <!-- Generator: Sketch 3.2.2 (9983) - http://www.bohemiancoding.com/sketch -->
    <title>app-call-center</title>
    <desc>Created with Sketch.</desc>
    <defs></defs>
    <g id="Page-1" stroke="none" stroke-width="1" fill="none" fill-rule="evenodd" sketch:type="MSPage">
        <g id="2-UI-controls" sketch:type="MSArtboardGroup" transform="translate(-53.000000, -83.000000)">
            <g id="App---Call-Center" sketch:type="MSLayerGroup" transform="translate(53.000000, 83.000000)">
                <g id="Call-Center" transform="translate(52.100222, 52.228639) rotate(0.000000) translate(-52.100222, -52.228639) translate(4.100222, 4.228639)" fill="#03538D" sketch:type="MSShapeGroup">
                    <path d="M95.0920272,5.03705316 C95.0920272,2.41544825 92.9667963,0.290217259 90.3451913,0.290217259 L4.90226906,0.290217259 C2.28066415,0.290217259 0.155433158,2.41544825 0.155433158,5.03705316 L0.155433158,90.4799754 C0.155433158,93.1015804 2.28066415,95.2268113 4.90226906,95.2268113 L90.3451913,95.2268113 C92.9667963,95.2268113 95.0920272,93.1015804 95.0920272,90.4799754 L95.0920272,5.03705316 L95.0920272,5.03705316 Z" id="Shape"></path>
                </g>
                <g id="Call-Center1" transform="translate(0.164810, 0.046139)" sketch:type="MSShapeGroup">
                    <g id="Call-Center2" transform="translate(47.837310, 48.084525) rotate(0.000000) translate(-47.837310, -48.084525) translate(0.137943, 0.385158)" fill="#0F74BD">
                        <path d="M95.0920272,5.03705316 C95.0920272,2.41544825 92.9667963,0.290217259 90.3451913,0.290217259 L4.90226906,0.290217259 C2.28066415,0.290217259 0.155433158,2.41544825 0.155433158,5.03705316 L0.155433158,90.4799754 C0.155433158,93.1015804 2.28066415,95.2268113 4.90226906,95.2268113 L90.3451913,95.2268113 C92.9667963,95.2268113 95.0920272,93.1015804 95.0920272,90.4799754 L95.0920272,5.03705316 L95.0920272,5.03705316 Z" id="Shape"></path>
                    </g>
                    <g id="Call-Center3" transform="translate(47.598813, 46.415047) rotate(0.000000) translate(-47.598813, -46.415047) translate(21.125665, 8.494051)" fill="#FFFFFF">
                        <path d="M35.9991893,7.03804161 C37.0294527,7.13176753 49.2079073,9.92557527 49.602858,9.92874251 C50.8825033,9.93901566 52.6317297,10.4112693 52.7979429,12.6260559 L52.8649099,71.7165088 C52.7964852,74.2899469 51.0772617,75.3168046 48.7041037,75.3273461 C35.7580662,75.3848434 18.0070329,75.5087473 4.71784614,75.3836509 C2.28455355,75.3607454 0.0949904276,74.1737899 0.16490816,71.7442035 L0.134606326,12.6480267 C0.171819989,10.7830005 2.33560776,9.97454869 3.47677219,9.97793534 C3.86338081,9.97908249 15.9143345,7.14315719 16.9452609,7.04658982 C17.9631272,6.95357414 18.7206743,6.07311728 18.7206743,5.22177421 C18.7192969,2.54348814 21.0333256,0.298293239 23.4884597,0.296862258 L29.4484002,0.294732124 C31.9021606,0.292601989 34.218957,2.53708891 34.2203403,5.21396785 C34.2217177,6.06602165 34.9806396,6.94647564 35.9991976,7.03807274 L35.9991893,7.03804161 Z M26.4998604,3.93519778 C27.8940938,3.93519778 29.0243446,5.1005124 29.0243446,6.53800438 C29.0243446,7.97549636 27.8940938,9.14081097 26.4998604,9.14081097 C25.105627,9.14081097 23.9753761,7.97549636 23.9753761,6.53800438 C23.9753761,5.1005124 25.105627,3.93519778 26.4998604,3.93519778 L26.4998604,3.93519778 Z" id="Shape"></path>
                    </g>
                    <g id="Call-Center4" transform="translate(47.598813, 52.377468) rotate(0.000000) translate(-47.598813, -52.377468) translate(29.234557, 26.619810)" fill="#CA2121">
                        <path d="M11.0390645,34.5887191 C11.3680785,34.7758212 16.1629782,37.5026114 16.1640276,37.5061841 L16.1662507,37.51358 C17.0872014,38.0468208 17.3404422,39.1236483 16.8870787,39.9117086 L16.8904133,39.9228025 C16.8904133,39.9228025 10.6881123,50.620578 10.6854412,50.6251572 C10.2076986,51.4526315 9.11975237,51.6894159 8.25271144,51.1949404 L3.1079054,48.2539596 L3.12095414,48.2314095 C0.875940497,46.5965233 -3.48846096,39.1035633 7.34535319,19.805401 C18.7743123,-0.558078874 28.2931026,-0.739336469 30.6701052,0.688067091 L30.6553078,0.713653794 C31.0502872,0.935967189 35.7832283,3.60005698 35.7807002,3.60445009 L35.7893283,3.60637531 C36.7102791,4.13961608 36.9578817,5.21777441 36.5037503,6.00997504 L36.5070849,6.02106891 C36.5070849,6.02106891 30.4781234,16.4185293 30.4755,16.4231561 C29.9985263,17.2464853 28.9116905,17.4869712 28.0427702,16.9929393 L22.8887582,14.0798913 L22.922837,14.0209764 C20.9524191,12.9113651 19.384269,14.7145156 16.5239192,18.6193718 C14.6271014,21.213106 12.5523602,24.5873736 10.967897,28.2202051 C9.85544755,30.7655721 8.97762655,33.3684454 11.0521732,34.5662243 L11.0390906,34.5888002 L11.0390645,34.5887191 Z" id="Shape"></path>
                    </g>
                </g>
            </g>
        </g>
    </g>
</svg>