<?xml version="1.0" encoding="UTF-8" standalone="no"?>
<svg width="76px" height="76px" viewBox="0 0 76 76" version="1.1" xmlns="http://www.w3.org/2000/svg" xmlns:xlink="http://www.w3.org/1999/xlink" xmlns:sketch="http://www.bohemiancoding.com/sketch/ns">
    <!-- Generator: Sketch 3.2.2 (9983) - http://www.bohemiancoding.com/sketch -->
    <title>app-navbar-ehealth-inverse</title>
    <desc>Created with Sketch.</desc>
    <defs>
        <filter x="-50%" y="-50%" width="200%" height="200%" filterUnits="objectBoundingBox" id="filter-1">
            <feOffset dx="2" dy="2" in="SourceAlpha" result="shadowOffsetOuter1"></feOffset>
            <feGaussianBlur stdDeviation="0" in="shadowOffsetOuter1" result="shadowBlurOuter1"></feGaussianBlur>
            <feColorMatrix values="0 0 0 0 0   0 0 0 0 0   0 0 0 0 0  0 0 0 0.35 0" in="shadowBlurOuter1" type="matrix" result="shadowMatrixOuter1"></feColorMatrix>
            <feMerge>
                <feMergeNode in="shadowMatrixOuter1"></feMergeNode>
                <feMergeNode in="SourceGraphic"></feMergeNode>
            </feMerge>
        </filter>
    </defs>
    <g id="Page-1" stroke="none" stroke-width="1" fill="none" fill-rule="evenodd" sketch:type="MSPage">
        <g id="app-navbar-ehealth-inverse" sketch:type="MSArtboardGroup" filter="url(#filter-1)" fill="#FFFFFF">
            <path d="M57.6820357,37.5572276 L72.985253,37.5572276 C72.988413,37.3707828 73,37.1864448 73,37 C73,17.6697866 57.3302134,2 37.9989466,2 C18.6687333,2 3,17.6697866 3,37 C3,56.32916 18.6687333,72 37.9989466,72 C53.6550396,72 66.9052578,61.7202576 71.3788786,47.5451892 L53.6518795,47.5451892 C54.0637433,48.5016402 54.4966744,49.3685557 54.4461131,50.308153 C54.3323502,52.4380474 49.5142806,54.7933608 49.5142806,54.7933608 C49.5142806,54.7933608 50.0736148,57.2592771 50.0736148,57.9302676 C50.0736148,58.6044181 48.5030547,58.94044 48.0553767,59.1648057 C47.6087519,59.3881181 47.3822795,61.1830439 46.8229452,61.6317754 C46.2636109,62.0815602 44.0178469,64.5474764 42.7854155,65.5565955 C41.5519307,66.5657146 39.9455563,66.4582719 38.8226743,66.4582719 C37.7008457,66.4582719 36.6211515,62.8726337 35.4477082,60.7922473 C34.4248954,55.5612604 33.5927408,53.7842417 32.1338369,52.8983658 C30.1672134,51.7070154 34.0867668,50.1564691 34.2563578,47.4704006 C34.3774942,45.4869233 28.8831673,40.7794565 30.5674903,36.8535829 C31.3617239,34.9954555 28.2395642,35.5158155 26.6700575,34.505643 C25.1016041,33.4975773 22.7178499,35.5073886 21.7076775,35.8455172 C20.6996118,36.1825925 19.5788365,35.17242 18.007223,35.7317543 C16.436663,36.2921419 15.5402534,34.7226352 13.4124658,32.2556656 C11.2804647,29.7886959 10.720077,28.8922864 10.720077,27.4365426 C10.720077,25.9776387 12.1758209,24.294369 11.61754,22.0538719 C11.056099,19.8102146 16.1016944,16.445782 18.1178259,14.0925753 C19.6399314,12.3197701 19.7610678,12.0090288 19.7273603,11.9637343 C19.7041864,11.962681 19.6894393,11.962681 19.6894393,11.962681 C19.6894393,11.962681 19.7168267,11.9479339 19.7273603,11.9637343 C20.0265146,11.9742679 22.1880098,12.0269359 24.0619376,11.4001866 C26.0812291,10.7281428 31.6882656,10.61754 31.6882656,10.61754 C31.6882656,10.61754 30.9014055,13.1961658 32.2465465,13.7576068 C33.5927408,14.316941 36.6211515,16.2245764 37.4059048,16.2245764 C38.1896048,16.2245764 37.9662925,15.4377163 37.9662925,14.9889849 C37.9662925,14.5413068 40.8809402,14.0925753 42.7854155,14.9889849 C44.6919975,15.8853944 46.7102357,14.9889849 47.9426671,14.9889849 C49.1761519,14.9889849 47.9426671,18.0173955 47.9426671,18.0173955 C47.9426671,18.0173955 50.0736148,21.0436994 50.8594216,23.0619376 C51.6452283,25.0812291 55.2319198,28.7816836 55.9039636,30.2384808 C56.5770608,31.6963313 62.2314985,28.4277545 62.5201192,29.3410178 C62.8066332,30.2553345 61.3982905,33.3216661 59.1556866,36.0130015 C58.6785145,36.5860294 58.1802751,37.0874289 57.6820357,37.5572276" id="ehealth" sketch:type="MSShapeGroup"></path>
        </g>
    </g>
</svg>