<?xml version="1.0" encoding="UTF-8" standalone="no"?>
<svg width="100px" height="100px" viewBox="0 0 100 100" version="1.1" xmlns="http://www.w3.org/2000/svg" xmlns:xlink="http://www.w3.org/1999/xlink" xmlns:sketch="http://www.bohemiancoding.com/sketch/ns">
    <!-- Generator: Sketch 3.2.2 (9983) - http://www.bohemiancoding.com/sketch -->
    <title>app-nutrition-journal</title>
    <desc>Created with Sketch.</desc>
    <defs></defs>
    <g id="Page-1" stroke="none" stroke-width="1" fill="none" fill-rule="evenodd" sketch:type="MSPage">
        <g id="2-UI-controls" sketch:type="MSArtboardGroup" transform="translate(-353.000000, -83.000000)">
            <g id="App---Nutrition-Survey" sketch:type="MSLayerGroup" transform="translate(352.000000, 83.000000)">
                <g id="Group" transform="translate(4.255095, 3.892420)" fill="#007554" sketch:type="MSShapeGroup">
                    <path d="M95.2794858,4.96064911 C95.2794858,2.32234607 93.1542548,0.183578579 90.5326499,0.183578579 L5.08972758,0.183578579 C2.46812266,0.183578579 0.34289167,2.32234607 0.34289167,4.96064911 L0.34289167,90.9477938 C0.34289167,93.5860969 2.46812266,95.7248644 5.08972758,95.7248644 L90.5326499,95.7248644 C93.1542548,95.7248644 95.2794858,93.5860969 95.2794858,90.9477938 L95.2794858,4.96064911 L95.2794858,4.96064911 Z" id="Shape"></path>
                </g>
                <g id="Group" transform="translate(0.457627, 0.070764)" fill="#03A678" sketch:type="MSShapeGroup">
                    <path d="M95.2794858,4.96064911 C95.2794858,2.32234607 93.1542548,0.183578579 90.5326499,0.183578579 L5.08972758,0.183578579 C2.46812266,0.183578579 0.34289167,2.32234607 0.34289167,4.96064911 L0.34289167,90.9477938 C0.34289167,93.5860969 2.46812266,95.7248644 5.08972758,95.7248644 L90.5326499,95.7248644 C93.1542548,95.7248644 95.2794858,93.5860969 95.2794858,90.9477938 L95.2794858,4.96064911 L95.2794858,4.96064911 Z" id="Shape"></path>
                </g>
                <path d="M81.4164557,28.5343949 C81.4164557,22.9911911 78.7457089,13.1638217 74.0727215,13.1638217 L74.0720496,13.1638217 C69.3990813,13.1638217 66.7276825,22.9912102 66.7276825,28.5343949 C66.7276825,35.0857962 72.7282965,35.1689172 72.7282965,40.0414013 C72.7282965,44.1707452 72.760547,57.6636306 72.7282965,58.2978981 C72.4306509,64.1724268 69.900999,70.700828 69.900999,76.160828 C69.900999,80.7803949 74.0713977,80.7803949 74.0713977,80.7803949 L74.0720696,80.7803949 C74.0720696,80.7803949 78.2424684,80.7803949 78.2424684,76.160828 C78.2424684,70.7007898 75.7128165,64.1724204 75.4151709,58.2978981 C75.3835922,57.6636548 75.4151709,44.1707643 75.4151709,40.0414013 C75.4158428,35.1696242 81.4164557,35.0864586 81.4164557,28.5343949 L81.4164557,28.5343949 Z M25.3086076,41.366879 C25.3092156,36.6533567 30.010538,36.6221465 30.0108418,30.2835032 C30.0105378,27.0121529 29.8784696,15.8001274 29.8070057,14.5055414 C29.7957578,14.3017892 27.9306006,13.5715669 27.8889487,13.7618535 C27.8302772,14.0295459 27.9030697,30.3205159 27.8340622,30.6851656 C27.7832946,30.952858 26.336385,30.9776382 26.2688977,30.6661977 C26.2084021,30.387492 26.3307594,13.8742869 26.2815117,13.392185 C26.240472,12.9898818 24.7109104,13.1076665 24.5656003,13.2321818 C24.5656003,13.2321818 24.5437125,30.5738378 24.5190887,30.7301436 C24.478353,30.9911054 23.2550064,31.0005894 23.1966393,30.7301436 C23.1387287,30.4595983 23.1501277,13.2321818 23.1501277,13.2321818 C23.0045125,13.1076665 21.4752542,12.9898818 21.4339125,13.392185 C21.3846648,13.8743372 21.507022,30.3875353 21.4465265,30.6661977 C21.3787347,30.9779442 20.0185961,30.9531639 19.967824,30.6851656 C19.8985126,30.3204924 19.9460461,14.0587325 19.8876784,13.7910255 C19.8460308,13.6007344 18.0061278,14.3017911 17.9948809,14.5055414 C17.9015189,16.196758 17.7910449,27.0124204 17.7907411,30.283758 C17.7910451,36.6224076 22.4923677,36.6533121 22.4929753,41.3671338 C22.4932793,45.3623248 22.523983,58.416242 22.4932793,59.0296178 C22.2050894,64.7126497 19.7579058,71.0286624 19.7579058,76.3108917 C19.7579058,80.7802803 23.7925641,80.780586 23.7925641,80.780586 L23.7931721,80.7802801 C23.7931721,80.7802801 23.8336038,80.7799741 23.9007872,80.775691 C23.9679708,80.7799741 24.0084024,80.7802801 24.0084024,80.7802801 L24.0090104,80.780586 C24.0090104,80.780586 28.0436687,80.7802801 28.0436687,76.3108917 C28.0436687,71.0283312 25.5964851,64.7126115 25.3082952,59.0296178 C25.2778955,58.415914 25.3082952,45.3620382 25.3085992,41.3668153 L25.3086076,41.366879 Z" id="Shape" fill="#E9E9E9" sketch:type="MSShapeGroup"></path>
                <g id="pencil" transform="translate(48.878491, 46.853541) rotate(-0.000000) translate(-48.878491, -46.853541) translate(44.395095, 12.893834)" fill="#F7DB27" sketch:type="MSShapeGroup">
                    <path d="M0.255208671,60.1880802 L4.24798971,67.8865831 L8.73577211,60.1884437 L8.57363804,9.85250499 L0.0930539097,9.85213731 L0.255187978,60.188076 L0.255208671,60.1880802 Z M2.1251295,0.71841521 C0.767805633,1.41118654 0.329446804,2.24770213 0.25504313,6.83543852 L8.73597214,6.83507084 C8.73619526,1.23066691 7.94230076,1.15346837 7.02132854,0.73737108 C6.11768982,0.329112265 3.11416656,0.276094944 2.1251226,0.718415728 L2.1251295,0.71841521 Z" id="Shape"></path>
                </g>
            </g>
        </g>
    </g>
</svg>