<?xml version="1.0" encoding="UTF-8" standalone="no"?>
<svg width="100px" height="100px" viewBox="0 0 100 100" version="1.1" xmlns="http://www.w3.org/2000/svg" xmlns:xlink="http://www.w3.org/1999/xlink" xmlns:sketch="http://www.bohemiancoding.com/sketch/ns">
    <!-- Generator: Sketch 3.2.2 (9983) - http://www.bohemiancoding.com/sketch -->
    <title>app-dashboard-nutrition</title>
    <desc>Created with Sketch.</desc>
    <defs></defs>
    <g id="Page-1" stroke="none" stroke-width="1" fill="none" fill-rule="evenodd" sketch:type="MSPage">
        <g id="2-UI-controls" sketch:type="MSArtboardGroup" transform="translate(-862.000000, -83.000000)">
            <g id="App---Nutrition-Dashboard" sketch:type="MSLayerGroup" transform="translate(862.000000, 83.000000)">
                <g id="Dashboard" transform="translate(51.852120, 51.950981) rotate(-0.000000) translate(-51.852120, -51.950981) translate(4.152753, 4.251614)" fill="#AB885D" sketch:type="MSShapeGroup">
                    <path d="M95.3882403,5.03705316 C95.3882403,2.41544825 93.2630093,0.290217259 90.6414044,0.290217259 L5.19848213,0.290217259 C2.57687722,0.290217259 0.451646227,2.41544825 0.451646227,5.03705316 L0.451646227,90.4799754 C0.451646227,93.1015804 2.57687722,95.2268113 5.19848213,95.2268113 L90.6414044,95.2268113 C93.2630093,95.2268113 95.3882403,93.1015804 95.3882403,90.4799754 L95.3882403,5.03705316 L95.3882403,5.03705316 Z" id="Shape"></path>
                </g>
                <g id="Group" sketch:type="MSShapeGroup">
                    <g id="Dashboard1" transform="translate(48.054652, 48.153513) rotate(-0.000000) translate(-48.054652, -48.153513) translate(0.355285, 0.454146)" fill="#E3CEB4">
                        <path d="M95.3882403,5.03705316 C95.3882403,2.41544825 93.2630093,0.290217259 90.6414044,0.290217259 L5.19848213,0.290217259 C2.57687722,0.290217259 0.451646227,2.41544825 0.451646227,5.03705316 L0.451646227,90.4799754 C0.451646227,93.1015804 2.57687722,95.2268113 5.19848213,95.2268113 L90.6414044,95.2268113 C93.2630093,95.2268113 95.3882403,93.1015804 95.3882403,90.4799754 L95.3882403,5.03705316 L95.3882403,5.03705316 Z" id="Shape"></path>
                    </g>
                    <g transform="translate(8.860759, 10.126582)">
                        <g id="Dashboard2" transform="translate(39.909383, 16.323718) rotate(-0.000000) translate(-39.909383, -16.323718) translate(0.557405, 0.344430)" fill="#FFFFFF">
                            <path d="M78.5813683,6.10074905 C78.5813683,2.95999376 76.035281,0.413887408 72.8945067,0.413887408 L5.76146345,0.413887408 C2.62070817,0.413887408 0.0746018101,2.95997468 0.0746018101,6.10074905 L0.0746018101,25.9614299 C0.0746018101,29.1021852 2.62068909,31.6482916 5.76146345,31.6482916 L72.8945067,31.6482916 C76.035262,31.6482916 78.5813683,29.1022043 78.5813683,25.9614299 L78.5813683,6.10074905 L78.5813683,6.10074905 Z" id="Shape"></path>
                        </g>
                        <g id="Dashboard3" transform="translate(48.972263, 12.975411) rotate(-0.000000) translate(-48.972263, -12.975411) translate(23.453101, 6.774494)" fill="#0F74BD">
                            <path d="M0.470315759,7.69724687 L11.6398858,12.3598314 L20.8468653,4.76537665 L29.2983345,3.41504573 L38.5090346,9.20188524 L50.727943,7.10579379 L50.6761963,4.07013452 L39.2140384,5.9800458 L29.7317382,0.0754365491 L19.4925443,1.67317932 L11.412033,8.32342508 L1.73869678,4.6860049 L0.470308605,7.69725164 L0.470315759,7.69724687 Z" id="Shape"></path>
                        </g>
                        <g id="Dashboard4" transform="translate(49.330491, 21.201661) rotate(-0.000000) translate(-49.330491, -21.201661) translate(25.242310, 15.716234)" fill="#3B3B3B">
                            <path d="M9.91908339,7.82555816 C10.6717651,7.82555816 11.2819306,8.43572847 11.2819306,9.1884054 C11.2819306,9.9410871 10.6717603,10.5512526 9.91908339,10.5512526 C9.16640168,10.5512526 8.55623615,9.94108233 8.55623615,9.1884054 C8.55623615,8.4357237 9.16640645,7.82555816 9.91908339,7.82555816 L9.91908339,7.82555816 Z M36.9412518,4.96359614 C37.6939335,4.96359614 38.3040991,5.57376644 38.3040991,6.32644338 C38.3040991,7.07912508 37.6939288,7.68929061 36.9412518,7.68929061 C36.1885701,7.68929061 35.5784046,7.07912031 35.5784046,6.32644338 C35.5784046,5.57376167 36.1885749,4.96359614 36.9412518,4.96359614 L36.9412518,4.96359614 Z M1.74770481,4.54765766 C2.50038651,4.54765766 3.11055205,5.15782796 3.11055205,5.91050489 C3.11055205,6.6631866 2.50038174,7.27335213 1.74770481,7.27335213 C0.995023107,7.27335213 0.384857573,6.66318183 0.384857573,5.91050489 C0.384857573,5.15782319 0.995027877,4.54765766 1.74770481,4.54765766 L1.74770481,4.54765766 Z M46.7439488,3.05562146 C47.4966305,3.05562146 48.106796,3.66579176 48.106796,4.41846869 C48.106796,5.1711504 47.4966257,5.78131593 46.7439488,5.78131593 C45.9912671,5.78131593 45.3811015,5.17114563 45.3811015,4.41846869 C45.3811015,3.66578699 45.9912718,3.05562146 46.7439488,3.05562146 L46.7439488,3.05562146 Z M17.336335,2.57862778 C18.0890167,2.57862778 18.6991822,3.18879809 18.6991822,3.94147502 C18.6991822,4.69415672 18.0890119,5.30432226 17.336335,5.30432226 C16.5836533,5.30432226 15.9734877,4.69415195 15.9734877,3.94147502 C15.9734877,3.18879332 16.583658,2.57862778 17.336335,2.57862778 L17.336335,2.57862778 Z M28.0930192,0.19365943 C28.8457009,0.19365943 29.4558665,0.803829734 29.4558665,1.55650667 C29.4558665,2.30918837 28.8456962,2.9193539 28.0930192,2.9193539 C27.3403375,2.9193539 26.730172,2.3091836 26.730172,1.55650667 C26.730172,0.803824964 27.3403423,0.19365943 28.0930192,0.19365943 L28.0930192,0.19365943 Z" id="Shape"></path>
                        </g>
                        <g id="Dashboard5" transform="translate(13.674731, 16.800712) rotate(-0.000000) translate(-13.674731, -16.800712) translate(7.235316, 5.591361)" fill="#03A678">
                            <path d="M6.29059253,0.416892468 C2.88791048,0.416892468 0.131364057,3.15188832 0.131364057,6.52222066 C0.131364057,7.28180923 0.272497898,8.01186235 0.530383572,8.68095568 L0.516317077,8.68095568 L0.736223084,9.19625672 L3.91290553,16.6482334 L5.81422616,21.1077761 L6.28217126,22.2119973 L11.8328035,9.18925922 C11.9167334,9.02093006 11.9542442,8.83290822 12.0212942,8.65660993 C12.2758977,7.98798405 12.4507908,7.27856567 12.4507908,6.52412863 C12.4507908,3.15192171 9.69423005,0.416940168 6.29060832,0.416940168 L6.29059253,0.416892468 Z M3.55312585,6.52193446 C3.55312585,5.02385475 4.77691036,3.81085507 6.28718203,3.81085507 C7.79979574,3.81085507 9.02545959,5.02385475 9.02545959,6.52193446 C9.02545959,8.01813959 7.79980051,9.23442098 6.28718203,9.23442098 C4.78065953,9.2339521 3.55312585,8.01813959 3.55312585,6.52193446 L3.55312585,6.52193446 Z" id="Shape"></path>
                        </g>
                    </g>
                    <g id="Dashboard6" transform="translate(48.770142, 67.471756) rotate(-0.000000) translate(-48.770142, -67.471756) translate(9.418165, 50.061487)" fill="#FFFFFF">
                        <path d="M78.4916935,5.65380598 C78.4916935,2.72966306 76.1212067,0.359176234 73.1970638,0.359176234 L49.442779,0.359176234 C46.518636,0.359176234 44.1481492,2.72966306 44.1481492,5.65380598 L44.1481492,29.4080908 C44.1481492,32.3322337 46.518636,34.7027205 49.442779,34.7027205 L73.1970638,34.7027205 C76.1212067,34.7027205 78.4916935,32.3322337 78.4916935,29.4080908 L78.4916935,5.65380598 L78.4916935,5.65380598 Z M34.7332481,5.52072475 C34.7332481,2.59789833 32.3638298,0.228479968 29.4410034,0.228479968 L5.68194861,0.228479968 C2.75912219,0.228479968 0.389703829,2.59789833 0.389703829,5.52072475 L0.389703829,29.2638956 C0.389703829,32.186722 2.75912219,34.5561404 5.68194861,34.5561404 L29.4410034,34.5561404 C32.3638298,34.5561404 34.7332481,32.186722 34.7332481,29.2638956 L34.7332481,5.52072475 L34.7332481,5.52072475 Z" id="Shape"></path>
                    </g>
                    <g transform="translate(59.493671, 55.696203)" id="Shape" fill="#3B3B3B">
                        <path d="M23.6601266,11.5139241 C23.6601266,7.5061962 21.7168797,0.401012658 18.3168165,0.401012658 L18.3163276,0.401012658 C14.9162643,0.401012658 12.9725301,7.50620253 12.9725301,11.5139241 C12.9725301,16.2505506 17.3385934,16.3106835 17.3385934,19.833481 C17.3385934,22.8189873 17.3385934,26.7037342 17.3385934,26.7037342 L19.2935681,26.7037342 C19.2935681,26.7037342 19.2935681,22.818962 19.2935681,19.833481 C19.294057,16.3111962 23.6601251,16.2510696 23.6601251,11.5139241 L23.6601266,11.5139241 Z M5.66772152,20.8272152 C5.6681639,17.4193481 9.08886076,17.3967848 9.08908228,12.8139873 C9.08886109,10.4488038 8.99276772,2.34253165 8.94077089,1.40658228 C8.9325869,1.25927025 7.57549241,0.731316456 7.54518861,0.868899367 C7.50249899,1.06244051 7.55546304,12.8407348 7.50525297,13.1044057 C7.4683143,13.2979468 6.41553778,13.3158633 6.36643652,13.090692 C6.32241981,12.8891882 6.41144728,0.950185633 6.37561456,0.601578038 C6.34575399,0.310713481 5.23284241,0.395871709 5.12710823,0.485895759 C5.12710823,0.485895759 5.11118259,13.0238704 5.0932662,13.1369084 C5.06362677,13.3255831 4.17351304,13.3324401 4.13104468,13.1369084 C4.08890873,12.9413046 4.09720266,0.485895759 4.09720266,0.485895759 C3.99125266,0.395871709 2.87855709,0.310713481 2.84847481,0.601578038 C2.81264209,0.950172975 2.90166962,12.889173 2.85765285,13.090692 C2.80832753,13.3160844 1.81868449,13.2981679 1.78174778,13.1044057 C1.73131652,12.8407475 1.76590209,1.08351962 1.72343367,0.889975316 C1.6931307,0.75239557 0.354414684,1.25925759 0.346231139,1.40657025 C0.278300759,2.62931709 0.197919747,10.4490386 0.197698228,12.8142285 C0.197919418,17.3970576 3.61861595,17.4193994 3.61905899,20.8274563 C3.61928018,23.715969 3.61928018,26.6353741 3.61928018,26.6353741 L5.66749537,26.6353741 C5.66749537,26.6353741 5.66749537,23.7157538 5.66771656,20.8272348 L5.66772152,20.8272152 Z"></path>
                    </g>
                    <g transform="translate(27.619206, 67.321501) scale(1, -1) rotate(164.000011) translate(-27.619206, -67.321501) translate(11.749509, 54.939649)" id="Shape" fill="#F7DB27">
                        <path d="M26.5573286,1.00289513 C26.7226319,1.7882045 26.4386403,3.86625595 26.4386403,3.86625595 C26.4386403,3.86625595 31.7830313,5.11068091 31.4433152,9.3334191 C31.2159076,12.1613643 29.4723371,18.3837507 24.5382877,21.0566612 C13.4984889,27.0372352 4.98022816,24.386783 0.671343666,21.2173783 C-0.159440236,20.6062938 -0.0528307465,18.7871347 1.55123992,18.6842677 C13.2990016,17.930893 27.4161265,13.990604 24.8923912,1.47070313 C24.5549679,-0.203194213 26.2804631,-0.31239866 26.5573282,1.00290629 L26.5573286,1.00289513 Z"></path>
                    </g>
                </g>
            </g>
        </g>
    </g>
</svg>