<?xml version="1.0" encoding="UTF-8" standalone="no"?>
<svg width="100px" height="100px" viewBox="0 0 100 100" version="1.1" xmlns="http://www.w3.org/2000/svg" xmlns:xlink="http://www.w3.org/1999/xlink" xmlns:sketch="http://www.bohemiancoding.com/sketch/ns">
    <!-- Generator: Sketch 3.2.2 (9983) - http://www.bohemiancoding.com/sketch -->
    <title>app-dashboard-ebola</title>
    <desc>Created with Sketch.</desc>
    <defs></defs>
    <g id="Page-1" stroke="none" stroke-width="1" fill="none" fill-rule="evenodd" sketch:type="MSPage">
        <g id="2-UI-controls" sketch:type="MSArtboardGroup" transform="translate(-726.000000, -83.000000)">
            <g id="App---Ebola-Dashboard" sketch:type="MSLayerGroup" transform="translate(726.000000, 83.000000)">
                <g id="Dashboard" transform="translate(51.822563, 51.928006) rotate(-0.000000) translate(-51.822563, -51.928006) translate(4.123196, 4.228639)" fill="#AB885D" sketch:type="MSShapeGroup">
                    <path d="M95.3882403,5.03705316 C95.3882403,2.41544825 93.2630093,0.290217259 90.6414044,0.290217259 L5.19848213,0.290217259 C2.57687722,0.290217259 0.451646227,2.41544825 0.451646227,5.03705316 L0.451646227,90.4799754 C0.451646227,93.1015804 2.57687722,95.2268113 5.19848213,95.2268113 L90.6414044,95.2268113 C93.2630093,95.2268113 95.3882403,93.1015804 95.3882403,90.4799754 L95.3882403,5.03705316 L95.3882403,5.03705316 Z" id="Shape"></path>
                </g>
                <g id="Dashboard1" transform="translate(0.164810, 0.046139)" sketch:type="MSShapeGroup">
                    <g id="Dashboard2" transform="translate(47.860222, 48.084525) rotate(-0.000000) translate(-47.860222, -48.084525) translate(0.160854, 0.385158)" fill="#E3CEB4">
                        <path d="M95.3882403,5.03705316 C95.3882403,2.41544825 93.2630093,0.290217259 90.6414044,0.290217259 L5.19848213,0.290217259 C2.57687722,0.290217259 0.451646227,2.41544825 0.451646227,5.03705316 L0.451646227,90.4799754 C0.451646227,93.1015804 2.57687722,95.2268113 5.19848213,95.2268113 L90.6414044,95.2268113 C93.2630093,95.2268113 95.3882403,93.1015804 95.3882403,90.4799754 L95.3882403,5.03705316 L95.3882403,5.03705316 Z" id="Shape"></path>
                    </g>
                    <g id="Group" transform="translate(8.591139, 52.942405)">
                        <g id="Dashboard3" transform="translate(39.909383, 16.323718) rotate(-0.000000) translate(-39.909383, -16.323718) translate(0.557405, 0.344430)" fill="#FFFFFF">
                            <path d="M78.5813683,6.10074905 C78.5813683,2.95999376 76.035281,0.413887408 72.8945067,0.413887408 L5.76146345,0.413887408 C2.62070817,0.413887408 0.0746018101,2.95997468 0.0746018101,6.10074905 L0.0746018101,25.9614299 C0.0746018101,29.1021852 2.62068909,31.6482916 5.76146345,31.6482916 L72.8945067,31.6482916 C76.035262,31.6482916 78.5813683,29.1022043 78.5813683,25.9614299 L78.5813683,6.10074905 L78.5813683,6.10074905 Z" id="Shape"></path>
                        </g>
                        <g id="Dashboard4" transform="translate(48.972263, 20.855158) rotate(-0.000000) translate(-48.972263, -20.855158) translate(23.453101, 14.654241)" fill="#CA2222">
                            <path d="M0.470315759,7.69724687 L11.6398858,12.3598314 L20.8468653,4.76537665 L29.2983345,3.41504573 L38.5090346,9.20188524 L50.727943,7.10579379 L50.6761963,4.07013452 L39.2140384,5.9800458 L29.7317382,0.0754365491 L19.4925443,1.67317932 L11.412033,8.32342508 L1.73869678,4.6860049 L0.470308605,7.69725164 L0.470315759,7.69724687 Z" id="Shape"></path>
                        </g>
                        <g id="Dashboard5" transform="translate(49.330491, 11.707991) rotate(-0.000000) translate(-49.330491, -11.707991) translate(25.242310, 6.222563)" fill="#3B3B3B">
                            <path d="M9.91908339,7.82555816 C10.6717651,7.82555816 11.2819306,8.43572847 11.2819306,9.1884054 C11.2819306,9.9410871 10.6717603,10.5512526 9.91908339,10.5512526 C9.16640168,10.5512526 8.55623615,9.94108233 8.55623615,9.1884054 C8.55623615,8.4357237 9.16640645,7.82555816 9.91908339,7.82555816 L9.91908339,7.82555816 Z M36.9412518,4.96359614 C37.6939335,4.96359614 38.3040991,5.57376644 38.3040991,6.32644338 C38.3040991,7.07912508 37.6939288,7.68929061 36.9412518,7.68929061 C36.1885701,7.68929061 35.5784046,7.07912031 35.5784046,6.32644338 C35.5784046,5.57376167 36.1885749,4.96359614 36.9412518,4.96359614 L36.9412518,4.96359614 Z M1.74770481,4.54765766 C2.50038651,4.54765766 3.11055205,5.15782796 3.11055205,5.91050489 C3.11055205,6.6631866 2.50038174,7.27335213 1.74770481,7.27335213 C0.995023107,7.27335213 0.384857573,6.66318183 0.384857573,5.91050489 C0.384857573,5.15782319 0.995027877,4.54765766 1.74770481,4.54765766 L1.74770481,4.54765766 Z M46.7439488,3.05562146 C47.4966305,3.05562146 48.106796,3.66579176 48.106796,4.41846869 C48.106796,5.1711504 47.4966257,5.78131593 46.7439488,5.78131593 C45.9912671,5.78131593 45.3811015,5.17114563 45.3811015,4.41846869 C45.3811015,3.66578699 45.9912718,3.05562146 46.7439488,3.05562146 L46.7439488,3.05562146 Z M17.336335,2.57862778 C18.0890167,2.57862778 18.6991822,3.18879809 18.6991822,3.94147502 C18.6991822,4.69415672 18.0890119,5.30432226 17.336335,5.30432226 C16.5836533,5.30432226 15.9734877,4.69415195 15.9734877,3.94147502 C15.9734877,3.18879332 16.583658,2.57862778 17.336335,2.57862778 L17.336335,2.57862778 Z M28.0930192,0.19365943 C28.8457009,0.19365943 29.4558665,0.803829734 29.4558665,1.55650667 C29.4558665,2.30918837 28.8456962,2.9193539 28.0930192,2.9193539 C27.3403375,2.9193539 26.730172,2.3091836 26.730172,1.55650667 C26.730172,0.803824964 27.3403423,0.19365943 28.0930192,0.19365943 L28.0930192,0.19365943 Z" id="Shape"></path>
                        </g>
                        <g id="Dashboard6" transform="translate(13.674731, 16.800712) rotate(-0.000000) translate(-13.674731, -16.800712) translate(7.235316, 5.591361)" fill="#0F74BD">
                            <path d="M6.29059253,0.416892468 C2.88791048,0.416892468 0.131364057,3.15188832 0.131364057,6.52222066 C0.131364057,7.28180923 0.272497898,8.01186235 0.530383572,8.68095568 L0.516317077,8.68095568 L0.736223084,9.19625672 L3.91290553,16.6482334 L5.81422616,21.1077761 L6.28217126,22.2119973 L11.8328035,9.18925922 C11.9167334,9.02093006 11.9542442,8.83290822 12.0212942,8.65660993 C12.2758977,7.98798405 12.4507908,7.27856567 12.4507908,6.52412863 C12.4507908,3.15192171 9.69423005,0.416940168 6.29060832,0.416940168 L6.29059253,0.416892468 Z M3.55312585,6.52193446 C3.55312585,5.02385475 4.77691036,3.81085507 6.28718203,3.81085507 C7.79979574,3.81085507 9.02545959,5.02385475 9.02545959,6.52193446 C9.02545959,8.01813959 7.79980051,9.23442098 6.28718203,9.23442098 C4.78065953,9.2339521 3.55312585,8.01813959 3.55312585,6.52193446 L3.55312585,6.52193446 Z" id="Shape"></path>
                        </g>
                    </g>
                    <g id="Group" transform="translate(8.860759, 10.126582)">
                        <g id="Dashboard7" transform="translate(39.555522, 17.860807) rotate(-0.000000) translate(-39.555522, -17.860807) translate(0.203544, 0.450538)" fill="#FFFFFF">
                            <path d="M78.4916935,5.65380598 C78.4916935,2.72966306 76.1212067,0.359176234 73.1970638,0.359176234 L49.442779,0.359176234 C46.518636,0.359176234 44.1481492,2.72966306 44.1481492,5.65380598 L44.1481492,29.4080908 C44.1481492,32.3322337 46.518636,34.7027205 49.442779,34.7027205 L73.1970638,34.7027205 C76.1212067,34.7027205 78.4916935,32.3322337 78.4916935,29.4080908 L78.4916935,5.65380598 L78.4916935,5.65380598 Z M34.7332481,5.52072475 C34.7332481,2.59789833 32.3638298,0.228479968 29.4410034,0.228479968 L5.68194861,0.228479968 C2.75912219,0.228479968 0.389703829,2.59789833 0.389703829,5.52072475 L0.389703829,29.2638956 C0.389703829,32.186722 2.75912219,34.5561404 5.68194861,34.5561404 L29.4410034,34.5561404 C32.3638298,34.5561404 34.7332481,32.186722 34.7332481,29.2638956 L34.7332481,5.52072475 L34.7332481,5.52072475 Z" id="Shape"></path>
                        </g>
                        <g id="Dashboard8" transform="translate(61.656661, 18.162706) rotate(-0.000000) translate(-61.656661, -18.162706) translate(55.694241, 5.045380)" fill="#0F74BD">
                            <path d="M5.98865554,0.222756044 C3.95787883,0.222756044 2.30637888,1.8751766 2.30637888,3.90503271 L2.30637888,16.3777971 C1.15106682,17.4171186 0.465240547,18.9056775 0.465240547,20.4752491 C0.465240547,23.5214117 2.94249287,25.998645 5.98863646,25.998645 C9.03479913,25.998645 11.5120324,23.5213927 11.5120324,20.4752491 C11.5120324,18.9056775 10.8262109,17.4171186 9.67089404,16.3777971 L9.67089404,3.90503271 C9.67089404,1.8751766 8.01939408,0.222756044 5.98861738,0.222756044 L5.98865554,0.222756044 Z M2.31675826,20.195435 L9.66007582,20.195435 C9.56562917,18.955552 8.84909118,17.8977661 7.82956014,17.3040425 L7.82956014,3.90514718 C7.82956014,2.88792002 7.00472838,2.06400885 5.98842181,2.06400885 C4.97119465,2.06400885 4.14728348,2.88792002 4.14728348,3.90514718 L4.14728348,4.39640774 L6.53714102,4.39640774 L6.53714102,5.74628551 L4.14728348,5.74628551 L4.14728348,7.58742384 L5.89115803,7.58742384 L5.89115803,8.93730162 L4.14728348,8.93730162 L4.14728348,10.77844 L6.53714102,10.77844 L6.53714102,12.1283177 L4.14728348,12.1283177 L4.14728348,13.9694561 L5.89115803,13.9694561 L5.89115803,15.3193338 L4.14728348,15.3193338 L4.14728348,17.3040282 C3.12775244,17.8977565 2.41121732,18.9555425 2.3167678,20.1954207 L2.31675826,20.195435 Z" id="Shape"></path>
                        </g>
                        <g id="Dashboard9" transform="translate(17.296250, 18.162706) rotate(-0.000000) translate(-17.296250, -18.162706) translate(5.132911, 5.999367)" fill="#CA2121">
                            <path d="M22.5727715,14.2072565 L10.1910175,1.82550248 C7.91208959,-0.453425414 4.21476378,-0.452738543 1.93649891,1.82550248 C-0.343115857,4.10511724 -0.342428986,7.80108839 1.93649891,10.0800211 L14.3182529,22.4617751 C16.5978677,24.7413898 20.2931233,24.7413898 22.5727715,22.4617751 C24.8510125,20.183534 24.8523862,16.4869046 22.5727715,14.2072565 L22.5727715,14.2072565 Z M15.1144984,9.26607905 L8.93237428,3.08395488 C7.03590468,1.18748528 4.50324478,1.73479736 3.195476,3.08395488 C1.87017294,4.45119523 1.2990064,6.9243931 3.195476,8.82085316 L9.37760017,15.0029773 L15.1144984,9.26607905 L15.1144984,9.26607905 Z M6.08405427,5.69387345 C5.51449521,6.26343251 4.59067772,6.26411938 4.02043178,5.69387345 C3.45018585,5.12362752 3.45087272,4.19981002 4.02043178,3.63025096 C4.5886171,3.06206564 5.51380834,3.06000503 6.08405427,3.63025096 C6.65430021,4.20049689 6.65223959,5.12568813 6.08405427,5.69387345 L6.08405427,5.69387345 Z M8.93218348,5.83554057 C8.55178866,6.21593539 7.93683125,6.21593539 7.55643357,5.83554057 C7.17603874,5.45514575 7.17603874,4.84018834 7.55643357,4.45979065 C7.93545226,4.08077196 8.5517858,4.07939583 8.93218348,4.45979065 C9.3125783,4.84018547 9.31120217,5.4565214 8.93218348,5.83554057 L8.93218348,5.83554057 Z" id="Shape"></path>
                        </g>
                    </g>
                </g>
            </g>
        </g>
    </g>
</svg>