<?xml version="1.0" encoding="UTF-8" standalone="no"?>
<svg width="120px" height="120px" viewBox="0 0 120 120" version="1.1" xmlns="http://www.w3.org/2000/svg" xmlns:xlink="http://www.w3.org/1999/xlink" xmlns:sketch="http://www.bohemiancoding.com/sketch/ns">
    <!-- Generator: Sketch 3.2.2 (9983) - http://www.bohemiancoding.com/sketch -->
    <title>app-ehealth</title>
    <desc>Created with Sketch.</desc>
    <defs></defs>
    <g id="Page-1" stroke="none" stroke-width="1" fill="none" fill-rule="evenodd" sketch:type="MSPage">
        <g id="app-ehealth" sketch:type="MSArtboardGroup" fill="#0F74BD">
            <path d="M93.1782887,60.9393265 L118.975141,60.9393265 C118.980468,60.6250339 119,60.3142926 119,60 C119,27.4147832 92.5852168,1 59.9982243,1 C27.4130075,1 1,27.4147832 1,60 C1,92.5834412 27.4130075,119 59.9982243,119 C86.3899239,119 108.726006,101.671291 116.267253,77.776176 L86.3845969,77.776176 C87.0788816,79.3884792 87.8086797,80.849851 87.7234478,82.4337436 C87.531676,86.024137 79.4097872,89.9945225 79.4097872,89.9945225 C79.4097872,89.9945225 80.352665,94.1513528 80.352665,95.282451 C80.352665,96.4188762 77.7051494,96.9853131 76.9504921,97.3635297 C76.1976104,97.7399705 75.8158425,100.765703 74.8729648,101.522136 C73.930087,102.280344 70.1443705,106.437175 68.0668432,108.138261 C65.9875403,109.839348 63.2796521,109.65823 61.3867939,109.65823 C59.4957113,109.65823 57.6756553,103.613868 55.6975652,100.106931 C53.9733951,91.2889819 52.5706203,88.2934361 50.1113251,86.8001023 C46.7961597,84.7918259 53.4034069,82.178048 53.6892888,77.6501038 C53.8934902,74.3065278 44.6316249,66.3710838 47.4709122,59.7531827 C48.8097631,56.6209107 43.546694,57.4980889 40.900954,55.7952268 C38.2569898,54.095916 34.2386613,57.4838836 32.5357992,58.0538719 C30.8364884,58.6220844 28.9471815,56.9192223 26.2978903,57.8621001 C23.6503747,58.8067535 22.1392843,56.1610136 18.5524423,52.0024077 C14.9584976,47.8438017 14.0138442,46.3327113 14.0138442,43.8787432 C14.0138442,41.419448 16.4678123,38.5819364 15.5267102,34.8050983 C14.5802811,31.0229332 23.0857134,25.3514612 26.484335,21.384627 C29.05017,18.3961838 29.2543714,17.8723628 29.1975502,17.7960093 C29.1584856,17.7942336 29.1336263,17.7942336 29.1336263,17.7942336 C29.1336263,17.7942336 29.1797935,17.7693743 29.1975502,17.7960093 C29.7018389,17.8137659 33.3455022,17.9025491 36.5044091,16.8460288 C39.9083577,15.713155 49.3602191,15.5267102 49.3602191,15.5267102 C49.3602191,15.5267102 48.0337978,19.8735366 50.3013212,20.8199657 C52.5706203,21.7628435 57.6756553,24.9785716 58.9985253,24.9785716 C60.3196196,24.9785716 59.9431787,23.6521504 59.9431787,22.8957173 C59.9431787,22.14106 64.8564421,21.384627 68.0668432,22.8957173 C71.2807957,24.4068077 74.6829687,22.8957173 76.760496,22.8957173 C78.839799,22.8957173 76.760496,28.0007524 76.760496,28.0007524 C76.760496,28.0007524 80.352665,33.1022361 81.6773106,36.5044091 C83.0019562,39.9083577 89.0480934,46.1462666 90.1809673,48.6020104 C91.3156168,51.0595299 100.847383,45.5496434 101.333915,47.0891444 C101.816896,48.630421 99.4428326,53.79938 95.6624432,58.3362025 C94.8580672,59.3021639 94.018178,60.1473801 93.1782887,60.9393265" id="ehealth" sketch:type="MSShapeGroup"></path>
        </g>
    </g>
</svg>