<?xml version="1.0" encoding="UTF-8" standalone="no"?>
<svg width="100px" height="100px" viewBox="0 0 100 100" version="1.1" xmlns="http://www.w3.org/2000/svg" xmlns:xlink="http://www.w3.org/1999/xlink" xmlns:sketch="http://www.bohemiancoding.com/sketch/ns">
    <!-- Generator: Sketch 3.2.2 (9983) - http://www.bohemiancoding.com/sketch -->
    <title>app-sense</title>
    <desc>Created with Sketch.</desc>
    <defs></defs>
    <g id="Page-1" stroke="none" stroke-width="1" fill="none" fill-rule="evenodd" sketch:type="MSPage">
        <g id="2-UI-controls" sketch:type="MSArtboardGroup" transform="translate(-199.000000, -83.000000)">
            <g id="App---Sense" sketch:type="MSLayerGroup" transform="translate(199.000000, 82.000000)">
                <g id="Sense" transform="translate(51.864241, 51.928006) rotate(-0.000000) translate(-51.864241, -51.928006) translate(4.164873, 4.228639)" fill="#03538D" sketch:type="MSShapeGroup">
                    <path d="M95.0519598,5.03705316 C95.0519598,2.41544825 92.9267288,0.290217259 90.3051239,0.290217259 L4.86220159,0.290217259 C2.24059668,0.290217259 0.115365689,2.41544825 0.115365689,5.03705316 L0.115365689,90.4799754 C0.115365689,93.1015804 2.24059668,95.2268113 4.86220159,95.2268113 L90.3051239,95.2268113 C92.9267288,95.2268113 95.0519598,93.1015804 95.0519598,90.4799754 L95.0519598,5.03705316 L95.0519598,5.03705316 Z" id="Shape"></path>
                </g>
                <g id="Sense1" transform="translate(47.961013, 47.900601) rotate(-0.000000) translate(-47.961013, -47.900601) translate(0.261646, 0.201234)" fill="#8BC8DC" sketch:type="MSShapeGroup">
                    <path d="M95.0519598,5.03705316 C95.0519598,2.41544825 92.9267288,0.290217259 90.3051239,0.290217259 L4.86220159,0.290217259 C2.24059668,0.290217259 0.115365689,2.41544825 0.115365689,5.03705316 L0.115365689,90.4799754 C0.115365689,93.1015804 2.24059668,95.2268113 4.86220159,95.2268113 L90.3051239,95.2268113 C92.9267288,95.2268113 95.0519598,93.1015804 95.0519598,90.4799754 L95.0519598,5.03705316 L95.0519598,5.03705316 Z" id="Shape"></path>
                </g>
                <g id="Group" transform="translate(8.500595, 8.756886)" fill="#FFFFFF" sketch:type="MSShapeGroup">
                    <path d="M39.3450371,0.333994025 C60.8121312,0.333994025 78.2147073,17.7365026 78.2147073,39.2036643 C78.2147073,60.6707584 60.8121988,78.0733346 39.3450371,78.0733346 C17.8779429,78.0733346 0.4753668,60.670826 0.4753668,39.2036643 C0.4753668,17.7365702 17.8778753,0.333994025 39.3450371,0.333994025 L39.3450371,0.333994025 Z" id="Shape"></path>
                </g>
                <path d="M13.4677215,56.9651899 C14.0953373,54.0250759 21.7126582,27.6215823 23.9957595,27.6331646 C26.2808987,27.6447447 33.57,54.3933544 33.6587342,54.1403797 C34.8622785,50.7089114 37.4162089,49.2560253 38.0827468,50.1573987 C38.5966956,52.4912911 38.0979817,55.3327658 38.0979817,55.3327658 C38.0979817,55.3327658 34.9719501,61.2527342 32.6053172,61.2808987 C30.2386842,61.3090613 23.673988,36.5953291 23.673988,36.5953291 C23.673988,36.5953291 18.8212032,53.4719114 17.6550766,56.974 C16.9517475,59.0862342 13.1759311,58.8027342 13.4677222,56.9651723 L13.4677215,56.9651899 Z M13.4677215,56.9651899 L13.4659726,56.9732366 C13.4659726,56.9732366 13.4680843,56.9629084 13.4677221,56.9651859 L13.4677215,56.9651899 L13.4677215,56.9651899 Z M57.2835443,48.6031646 C57.7345563,49.6339177 63.0646962,40.3675949 64.9723418,39.4248734 C67.0914177,41.6987785 71.0812975,51.6155063 74.3543038,54.801962 C76.6967722,53.5336139 85.3796835,41.4375949 82.0306329,41.0229114 C79.6882215,40.7328759 74.5591139,48.0807595 74.5591139,48.0807595 C74.5591139,48.0807595 68.4596013,34.1120253 65.3531013,33.7386709 C62.2811139,35.2144114 58.3258861,39.8893354 56.9809494,42.5777215 C56.9447628,44.3401329 56.7721589,45.690057 57.2835608,48.6031329 L57.2835443,48.6031646 Z" id="Shape" fill="#3B3B3B" sketch:type="MSShapeGroup"></path>
                <g id="Dashboard" transform="translate(47.797440, 47.501187) rotate(-0.000000) translate(-47.797440, -47.501187) translate(36.988342, 18.532804)" fill="#CA2121" sketch:type="MSShapeGroup">
                    <path d="M10.8566581,0.140950639 C7.17512256,0.140950639 4.18116668,3.13657544 4.18116668,6.81644209 L4.18116668,40.0054752 C2.0867353,41.8896307 0.843420954,44.5881955 0.843420954,47.4336257 C0.843420954,52.9559248 5.33435909,57.4468283 10.8566235,57.4468283 C16.3789226,57.4468283 20.8698261,52.9558902 20.8698261,47.4336257 C20.8698261,44.5881955 19.6265204,41.8896307 17.5320804,40.0054752 L17.5320804,6.81644209 C17.5320804,3.13657544 14.5381245,0.140950639 10.856589,0.140950639 L10.8566581,0.140950639 Z M4.19998316,46.9261861 L17.5124684,46.9261861 C17.3412488,44.6784385 16.0422581,42.7608094 14.1939801,41.6844653 L14.1939801,6.81656315 C14.1939801,4.97246184 12.6986668,3.47881743 10.8562344,3.47881743 C9.0121331,3.47881743 7.51848869,4.97246184 7.51848869,6.81656315 L7.51848869,11.2329704 L11.8509914,11.2329704 L11.8509914,13.6801243 L7.51848869,13.6801243 L7.51848869,17.7712036 L10.6799078,17.7712036 L10.6799078,20.2183575 L7.51848869,20.2183575 L7.51848869,24.3094368 L11.8509914,24.3094368 L11.8509914,26.7565907 L7.51848869,26.7565907 L7.51848869,30.84767 L10.6799078,30.84767 L10.6799078,33.2948239 L7.51848869,33.2948239 L7.51848869,41.6844567 C5.67021074,42.7608094 4.37122521,44.6784385 4.20000045,46.9261775 L4.19998316,46.9261861 Z" id="Shape"></path>
                </g>
            </g>
        </g>
    </g>
</svg>