<?xml version="1.0" encoding="UTF-8" standalone="no"?>
<svg width="76px" height="76px" viewBox="0 0 76 76" version="1.1" xmlns="http://www.w3.org/2000/svg" xmlns:xlink="http://www.w3.org/1999/xlink" xmlns:sketch="http://www.bohemiancoding.com/sketch/ns">
    <!-- Generator: Sketch 3.2.2 (9983) - http://www.bohemiancoding.com/sketch -->
    <title>app-navbar-ehealth</title>
    <desc>Created with Sketch.</desc>
    <defs>
        <filter x="-50%" y="-50%" width="200%" height="200%" filterUnits="objectBoundingBox" id="filter-1">
            <feOffset dx="2" dy="2" in="SourceAlpha" result="shadowOffsetOuter1"></feOffset>
            <feGaussianBlur stdDeviation="0" in="shadowOffsetOuter1" result="shadowBlurOuter1"></feGaussianBlur>
            <feColorMatrix values="0 0 0 0 0.52250744   0 0 0 0 0.52250744   0 0 0 0 0.52250744  0 0 0 0.35 0" in="shadowBlurOuter1" type="matrix" result="shadowMatrixOuter1"></feColorMatrix>
            <feMerge>
                <feMergeNode in="shadowMatrixOuter1"></feMergeNode>
                <feMergeNode in="SourceGraphic"></feMergeNode>
            </feMerge>
        </filter>
    </defs>
    <g id="Page-1" stroke="none" stroke-width="1" fill="none" fill-rule="evenodd" sketch:type="MSPage">
        <g id="app-navbar-ehealth" sketch:type="MSArtboardGroup" filter="url(#filter-1)" fill="#0F74BD">
            <path d="M56.6820357,38.5572276 L71.985253,38.5572276 C71.988413,38.3707828 72,38.1864448 72,38 C72,18.6697866 56.3302134,3 36.9989466,3 C17.6687333,3 2,18.6697866 2,38 C2,57.32916 17.6687333,73 36.9989466,73 C52.6550396,73 65.9052578,62.7202576 70.3788786,48.5451892 L52.6518795,48.5451892 C53.0637433,49.5016402 53.4966744,50.3685557 53.4461131,51.308153 C53.3323502,53.4380474 48.5142806,55.7933608 48.5142806,55.7933608 C48.5142806,55.7933608 49.0736148,58.2592771 49.0736148,58.9302676 C49.0736148,59.6044181 47.5030547,59.94044 47.0553767,60.1648057 C46.6087519,60.3881181 46.3822795,62.1830439 45.8229452,62.6317754 C45.2636109,63.0815602 43.0178469,65.5474764 41.7854155,66.5565955 C40.5519307,67.5657146 38.9455563,67.4582719 37.8226743,67.4582719 C36.7008457,67.4582719 35.6211515,63.8726337 34.4477082,61.7922473 C33.4248954,56.5612604 32.5927408,54.7842417 31.1338369,53.8983658 C29.1672134,52.7070154 33.0867668,51.1564691 33.2563578,48.4704006 C33.3774942,46.4869233 27.8831673,41.7794565 29.5674903,37.8535829 C30.3617239,35.9954555 27.2395642,36.5158155 25.6700575,35.505643 C24.1016041,34.4975773 21.7178499,36.5073886 20.7076775,36.8455172 C19.6996118,37.1825925 18.5788365,36.17242 17.007223,36.7317543 C15.436663,37.2921419 14.5402534,35.7226352 12.4124658,33.2556656 C10.2804647,30.7886959 9.72007705,29.8922864 9.72007705,28.4365426 C9.72007705,26.9776387 11.1758209,25.294369 10.61754,23.0538719 C10.056099,20.8102146 15.1016944,17.445782 17.1178259,15.0925753 C18.6399314,13.3197701 18.7610678,13.0090288 18.7273603,12.9637343 C18.7041864,12.962681 18.6894393,12.962681 18.6894393,12.962681 C18.6894393,12.962681 18.7168267,12.9479339 18.7273603,12.9637343 C19.0265146,12.9742679 21.1880098,13.0269359 23.0619376,12.4001866 C25.0812291,11.7281428 30.6882656,11.61754 30.6882656,11.61754 C30.6882656,11.61754 29.9014055,14.1961658 31.2465465,14.7576068 C32.5927408,15.316941 35.6211515,17.2245764 36.4059048,17.2245764 C37.1896048,17.2245764 36.9662925,16.4377163 36.9662925,15.9889849 C36.9662925,15.5413068 39.8809402,15.0925753 41.7854155,15.9889849 C43.6919975,16.8853944 45.7102357,15.9889849 46.9426671,15.9889849 C48.1761519,15.9889849 46.9426671,19.0173955 46.9426671,19.0173955 C46.9426671,19.0173955 49.0736148,22.0436994 49.8594216,24.0619376 C50.6452283,26.0812291 54.2319198,29.7816836 54.9039636,31.2384808 C55.5770608,32.6963313 61.2314985,29.4277545 61.5201192,30.3410178 C61.8066332,31.2553345 60.3982905,34.3216661 58.1556866,37.0130015 C57.6785145,37.5860294 57.1802751,38.0874289 56.6820357,38.5572276" id="ehealth" sketch:type="MSShapeGroup"></path>
        </g>
    </g>
</svg>