<?xml version="1.0" standalone="no"?>
<!DOCTYPE svg PUBLIC "-//W3C//DTD SVG 1.1//EN" "http://www.w3.org/Graphics/SVG/1.1/DTD/svg11.dtd">
<svg width="350px" height="100px" version="1.1" xmlns="http://www.w3.org/2000/svg" xmlns:xlink="http://www.w3.org/1999/xlink" xml:space="preserve" style="fill-rule:evenodd;clip-rule:evenodd;">
    <g>
        <g id="Layer1">
            <g>
                <path d="M132.317,31.3046C131.774,28.3527 129.064,26.4233 126.111,26.4233C122.918,26.4233 120.266,28.1108 119.604,31.3046L132.317,31.3046ZM142.5,37.6313L119.423,37.6313C119.423,42.0881 121.773,44.4983 126.292,44.4983C128.643,44.4983 130.33,43.7162 131.534,41.6666L142.078,41.6666C140.33,48.9581 133.402,52.2706 126.351,52.2706C116.109,52.2706 108.457,46.487 108.457,35.8222C108.457,25.5195 115.507,19.3129 125.569,19.3129C136.295,19.3129 142.5,25.941 142.5,36.4856L142.5,37.6313Z" style="fill:rgb(128,130,133);fill-rule:nonzero;"/>
                <path d="M302.863,50.8929L291.896,50.8929L291.896,29.0216L288.341,29.0216L288.341,19.9833L291.896,19.9833L291.896,10.7047L302.863,10.7047L302.863,19.9833L309.068,19.9833L309.068,29.0216L302.863,29.0216L302.863,50.8929ZM283.642,50.8922L272.678,50.8922L272.678,0.882059L283.642,0.882059L283.642,50.8922ZM226.585,37.2769L203.51,37.2769C203.51,41.7337 205.859,44.1454 210.377,44.1454C212.728,44.1454 214.415,43.3618 215.622,41.3122L226.163,41.3122C224.416,48.6037 217.487,51.9177 210.436,51.9177C200.196,51.9177 192.544,46.1326 192.544,35.4678C192.544,25.1651 199.595,18.9585 209.654,18.9585C220.38,18.9585 226.585,25.5866 226.585,36.1312L226.585,37.2769ZM240.684,35.4684C240.684,39.385 243.274,42.3977 247.734,42.3977C252.192,42.3977 254.782,39.385 254.782,35.4684C254.782,31.672 252.192,28.4782 247.734,28.4782C243.274,28.4782 240.684,31.672 240.684,35.4684ZM216.404,30.9502C215.862,27.9983 213.149,26.0689 210.196,26.0689C207.003,26.0689 204.354,27.7564 203.689,30.9502L216.404,30.9502ZM323.526,0.883098L323.526,23.9002L323.648,23.9002C326.178,20.5253 329.25,18.9596 333.529,18.9596C341.362,18.9596 345.157,24.1406 345.157,31.9738L345.157,50.8932L334.191,50.8932L334.191,35.0459C334.191,31.4306 333.649,27.6951 329.25,27.6951C324.912,27.6951 323.526,31.4306 323.526,35.0459L323.526,50.8932L312.56,50.8932L312.56,0.883098L323.526,0.883098ZM175.553,22.9962L175.553,5.46292L187.363,5.46292L187.363,50.8931L175.553,50.8931L175.553,32.2734L158.5,32.2734L158.5,50.8931L146.693,50.8931L146.693,5.46292L158.5,5.46292L158.5,22.9962L175.553,22.9962ZM265.387,50.8928L254.423,50.8928L254.423,47.4585L254.302,47.4585C252.373,50.5321 248.577,51.9183 244.963,51.9183C235.803,51.9183 229.356,44.2647 229.356,35.4075C229.356,26.5518 235.684,18.9591 244.841,18.9591C248.396,18.9591 252.133,20.2859 254.423,22.9959L254.423,19.9832L265.387,19.9832L265.387,50.8928Z" style="fill:rgb(65,64,66);"/>
                <path d="M164.926,71.7278L164.926,77.5455L172.116,77.5455L172.116,79.9067L164.926,79.9067L164.926,90.0625L162.345,90.0625L162.345,69.3665L172.364,69.3665L172.364,71.7278L164.926,71.7278ZM248.714,90.0623L246.134,90.0623L246.134,69.3679L248.714,69.3679L248.714,90.0623ZM329.595,84.8739L327.235,90.0623L324.462,90.0623L334.341,68.4878L344.224,90.0623L341.45,90.0623L339.089,84.8739L329.595,84.8739ZM118.048,84.8739L115.688,90.0623L112.916,90.0623L122.797,68.4878L132.679,90.0623L129.906,90.0623L127.545,84.8739L118.048,84.8739ZM216.222,90.062L213.092,90.062L206.999,81.3043L205.928,81.3043L205.928,90.062L203.349,90.062L203.349,69.3661L206.476,69.3661C208.316,69.3661 210.293,69.3943 211.939,70.3278C213.669,71.3414 214.657,73.2901 214.657,75.2669C214.657,78.2307 212.681,80.7017 209.689,81.0579L216.222,90.062ZM295.618,73.319C294.137,72.0011 292.104,71.2873 290.157,71.2873C285.517,71.2873 281.978,75.1578 281.978,79.7408C281.978,84.2703 285.491,88.1408 290.1,88.1408C292.132,88.1408 294.081,87.3721 295.618,85.9993L295.618,89.0461C294.026,89.9797 291.995,90.5006 290.185,90.5006C284.282,90.5006 279.395,85.8063 279.395,79.8239C279.395,73.7034 284.309,68.9275 290.401,68.9275C292.215,68.9275 294.052,69.3668 295.618,70.3271L295.618,73.319ZM334.341,74.1423L330.662,82.5141L338.02,82.5141L334.341,74.1423ZM122.797,74.1423L119.12,82.5141L126.475,82.5141L122.797,74.1423ZM205.928,79.1642L206.752,79.1642C209.386,79.1642 212.24,78.67 212.24,75.3767C212.24,72.1399 209.166,71.6724 206.615,71.6724L205.928,71.6724L205.928,79.1642Z" style="fill:rgb(128,130,133);"/>
                <path d="M77.4885,51.0473L99.0496,51.0473C99.0541,50.7846 99.0704,50.5263 99.0704,50.2622C99.0704,23.0272 76.9928,0.951071 49.7579,0.951071C22.5214,0.951071 0.445279,23.0272 0.445279,50.2622C0.445279,77.4956 22.5214,99.5747 49.7579,99.5747C71.8147,99.5747 90.4834,85.0913 96.7864,65.1196L71.8103,65.1196C72.3906,66.4687 73.0005,67.6886 72.9293,69.0124C72.7705,72.0148 65.9792,75.3333 65.9792,75.3333C65.9792,75.3333 66.7687,78.8061 66.7687,79.7529C66.7687,80.7028 64.5574,81.1762 63.9267,81.4908C63.2959,81.8069 62.9768,84.3359 62.1888,84.9666C61.4007,85.6003 58.2366,89.0761 56.5002,90.4979C54.7638,91.9197 52.499,91.7683 50.9169,91.7683C49.3349,91.7683 47.8151,86.7149 46.1618,83.7838C44.7208,76.4137 43.5483,73.9085 41.4928,72.6619C38.722,70.9833 44.2459,68.7987 44.4833,65.0142C44.654,62.2196 36.9129,55.5886 39.286,50.0574C40.4065,47.4379 36.0061,48.171 33.7947,46.7493C31.5834,45.3275 28.2264,48.1577 26.8031,48.6356C25.3828,49.1105 23.8037,47.6872 21.5894,48.4753C19.3766,49.2648 18.1136,47.0535 15.1157,43.5792C12.1119,40.1019 11.3223,38.8404 11.3223,36.7879C11.3223,34.7324 13.3734,32.3623 12.5868,29.2041C11.7958,26.0429 18.9047,21.3027 21.7467,17.9872C23.8898,15.4894 24.0605,15.0516 24.013,14.9878C23.9803,14.9878 23.9595,14.9863 23.9595,14.9863C23.9595,14.9863 23.9966,14.967 24.013,14.9878C24.4345,15.0026 27.4799,15.0768 30.1201,14.1938C32.9636,13.2469 40.8651,13.0911 40.8651,13.0911C40.8651,13.0911 39.7549,16.7257 41.6516,17.5167C43.5483,18.3033 47.8151,20.991 48.9208,20.991C50.025,20.991 49.7104,19.8809 49.7104,19.2502C49.7104,18.6194 53.8169,17.9872 56.5002,19.2502C59.1864,20.5146 62.03,19.2502 63.7679,19.2502C65.5043,19.2502 63.7679,23.517 63.7679,23.517C63.7679,23.517 66.7687,27.7808 67.8759,30.6244C68.983,33.4694 74.0364,38.6846 74.9833,40.7356C75.9316,42.7911 83.8984,38.1845 84.305,39.4712C84.7087,40.7594 82.7244,45.0796 79.5647,48.8715C78.8924,49.6789 78.1905,50.3868 77.4885,51.0473" style="fill:rgb(128,130,133);fill-rule:nonzero;"/>
                <path d="M113.137,60.1113L348.775,60.1113" style="fill:none;stroke-width:1.71px;stroke:rgb(65,64,66);"/>
            </g>
        </g>
    </g>
</svg>
