<?xml version="1.0" standalone="no"?>
<!DOCTYPE svg PUBLIC "-//W3C//DTD SVG 1.1//EN" "http://www.w3.org/Graphics/SVG/1.1/DTD/svg11.dtd">
<svg width="350px" height="100px" version="1.1" xmlns="http://www.w3.org/2000/svg" xmlns:xlink="http://www.w3.org/1999/xlink" xml:space="preserve" style="fill-rule:evenodd;clip-rule:evenodd;">
    <g>
        <g id="Layer1">
            <g>
                <path d="M132.722,31.0575C132.18,28.1154 129.479,26.1925 126.536,26.1925C123.354,26.1925 120.711,27.8743 120.051,31.0575L132.722,31.0575ZM142.87,37.3632L119.871,37.3632C119.871,41.8067 122.212,44.2088 126.716,44.2088C129.059,44.2088 130.741,43.4278 131.941,41.3851L142.45,41.3851C140.708,48.6523 133.803,51.9553 126.775,51.9553C116.568,51.9553 108.941,46.1895 108.941,35.5601C108.941,25.2932 115.967,19.1073 125.996,19.1073C136.684,19.1073 142.87,25.7133 142.87,36.2213L142.87,37.3632Z" style="fill:rgb(22,118,188);fill-rule:nonzero;"/>
                <path d="M302.699,50.5822L291.768,50.5822L291.768,28.7836L288.226,28.7836L288.226,19.7754L291.768,19.7754L291.768,10.5276L302.699,10.5276L302.699,19.7754L308.885,19.7754L308.885,28.7836L302.699,28.7836L302.699,50.5822ZM283.543,50.5819L272.616,50.5819L272.616,0.738138L283.543,0.738138L283.543,50.5819ZM226.676,37.0107L203.676,37.0107C203.676,41.4542 206.019,43.8564 210.521,43.8564C212.864,43.8564 214.547,43.0754 215.748,41.0341L226.256,41.0341C224.514,48.2998 217.609,51.6013 210.58,51.6013C200.375,51.6013 192.747,45.837 192.747,35.2091C192.747,24.9407 199.774,18.7548 209.8,18.7548C220.493,18.7548 226.676,25.3593 226.676,35.8688L226.676,37.0107ZM240.727,35.209C240.727,39.111 243.308,42.1137 247.755,42.1137C252.197,42.1137 254.779,39.111 254.779,35.209C254.779,31.4252 252.197,28.2435 247.755,28.2435C243.308,28.2435 240.727,31.4252 240.727,35.209ZM216.527,30.705C215.988,27.7629 213.285,25.84 210.342,25.84C207.16,25.84 204.518,27.5218 203.857,30.705L216.527,30.705ZM323.294,0.73873L323.294,23.6778L323.415,23.6778C325.939,20.3156 328.999,18.7551 333.263,18.7551C341.072,18.7551 344.854,23.9189 344.854,31.7245L344.854,50.5825L333.923,50.5825L333.923,34.7878C333.923,31.1846 333.385,27.4615 328.999,27.4615C324.675,27.4615 323.294,31.1846 323.294,34.7878L323.294,50.5825L312.366,50.5825L312.366,0.73873L323.294,0.73873ZM175.813,22.7783L175.813,5.30331L187.584,5.30331L187.584,50.5823L175.813,50.5823L175.813,32.0261L158.818,32.0261L158.818,50.5823L147.049,50.5823L147.049,5.30331L158.818,5.30331L158.818,22.7783L175.813,22.7783ZM265.35,50.582L254.421,50.582L254.421,47.1592L254.3,47.1592C252.377,50.2211 248.593,51.6026 244.993,51.6026C235.864,51.6026 229.438,43.976 229.438,35.1483C229.438,26.3206 235.744,18.7546 244.872,18.7546C248.414,18.7546 252.138,20.0755 254.421,22.778L254.421,19.7753L265.35,19.7753L265.35,50.582Z" style="fill:rgb(65,64,66);"/>
                <path d="M165.221,71.3469L165.221,77.1453L172.388,77.1453L172.388,79.4987L165.221,79.4987L165.221,89.6207L162.649,89.6207L162.649,68.9951L172.635,68.9951L172.635,71.3469L165.221,71.3469ZM248.731,89.6202L246.158,89.6202L246.158,68.9946L248.731,68.9946L248.731,89.6202ZM216.346,89.6202L213.227,89.6202L207.155,80.8931L206.088,80.8931L206.088,89.6202L203.516,89.6202L203.516,68.9946L206.634,68.9946C208.467,68.9946 210.437,69.0212 212.077,69.9516C213.802,70.9634 214.787,72.9056 214.787,74.8758C214.787,77.8297 212.817,80.2911 209.835,80.6476L216.346,89.6202ZM329.344,84.4501L326.99,89.6198L324.226,89.6198L334.074,68.1185L343.922,89.6198L341.158,89.6198L338.806,84.4501L329.344,84.4501ZM118.501,84.4501L116.149,89.6198L113.386,89.6198L123.233,68.1185L133.081,89.6198L130.318,89.6198L127.966,84.4501L118.501,84.4501ZM295.478,72.9337C294.002,71.6202 291.979,70.9087 290.035,70.9087C285.411,70.9087 281.883,74.7664 281.883,79.334C281.883,83.847 285.384,87.7047 289.979,87.7047C292.005,87.7047 293.946,86.9385 295.478,85.5717L295.478,88.6085C293.893,89.5374 291.869,90.0581 290.063,90.0581C284.182,90.0581 279.311,85.3794 279.311,79.4169C279.311,73.3168 284.207,68.5568 290.281,68.5568C292.087,68.5568 293.918,68.9946 295.478,69.9516L295.478,72.9337ZM334.074,73.7542L330.407,82.0982L337.741,82.0982L334.074,73.7542ZM123.233,73.7542L119.567,82.0982L126.899,82.0982L123.233,73.7542ZM206.088,78.7601L206.908,78.7601C209.533,78.7601 212.379,78.2676 212.379,74.9853C212.379,71.7562 209.316,71.2918 206.771,71.2918L206.088,71.2918L206.088,78.7601Z" style="fill:rgb(22,118,188);"/>
                <path d="M78.0751,50.736L99.5646,50.736C99.569,50.4742 99.5853,50.2153 99.5853,49.9535C99.5853,22.8092 77.5811,0.804997 50.4353,0.804997C23.291,0.804997 1.28827,22.8092 1.28827,49.9535C1.28827,77.0964 23.291,99.102 50.4353,99.102C72.4203,99.102 91.0268,84.6668 97.3088,64.7615L72.4158,64.7615C72.9942,66.1046 73.6021,67.322 73.5311,68.6414C73.3714,71.6323 66.6056,74.9397 66.6056,74.9397C66.6056,74.9397 67.3911,78.4025 67.3911,79.3447C67.3911,80.2914 65.1856,80.7632 64.557,81.0783C63.9298,81.3919 63.6118,83.9124 62.8263,84.5425C62.0409,85.1741 58.8873,88.6369 57.1567,90.0539C55.4246,91.471 53.1688,91.3201 51.592,91.3201C50.0167,91.3201 48.5005,86.285 46.8527,83.3636C45.4165,76.018 44.2479,73.5227 42.1993,72.2787C39.4376,70.6057 44.9417,68.4284 45.1798,64.6565C45.3499,61.8712 37.6345,55.2608 39.9997,49.7479C41.115,47.1386 36.7308,47.8694 34.5268,46.4508C32.3243,45.0353 28.9769,47.8575 27.5584,48.3323C26.1428,48.8057 24.569,47.3871 22.3621,48.1726C20.1566,48.9595 18.8978,46.7555 15.9099,43.2913C12.9161,39.8271 12.1291,38.5683 12.1291,36.5241C12.1291,34.4754 14.1734,32.1117 13.3894,28.9655C12.601,25.8149 19.6862,21.0904 22.5174,17.7859C24.6548,15.2965 24.8249,14.8601 24.7776,14.7965C24.745,14.795 24.7243,14.795 24.7243,14.795C24.7243,14.795 24.7628,14.7743 24.7776,14.7965C25.1976,14.8113 28.2329,14.8853 30.8644,14.0051C33.6999,13.0614 41.5736,12.9061 41.5736,12.9061C41.5736,12.9061 40.4686,16.5271 42.3575,17.3155C44.2479,18.101 48.5005,20.7798 49.6025,20.7798C50.703,20.7798 50.3895,19.6748 50.3895,19.0447C50.3895,18.416 54.4823,17.7859 57.1567,19.0447C59.834,20.3035 62.6681,19.0447 64.3987,19.0447C66.1308,19.0447 64.3987,23.2973 64.3987,23.2973C64.3987,23.2973 67.3911,27.547 68.4945,30.3811C69.598,33.2167 74.6346,38.413 75.5783,40.4587C76.5235,42.5059 84.4637,37.916 84.869,39.1984C85.2713,40.4824 83.2937,44.7882 80.1445,48.5675C79.4744,49.3722 78.7748,50.0763 78.0751,50.736" style="fill:rgb(22,118,188);fill-rule:nonzero;"/>
                <path d="M113.606,59.7706L348.459,59.7706" style="fill:none;stroke-width:1.71px;stroke:rgb(65,64,66);"/>
            </g>
        </g>
    </g>
</svg>
