<?xml version="1.0" standalone="no"?>
<!DOCTYPE svg PUBLIC "-//W3C//DTD SVG 1.1//EN" "http://www.w3.org/Graphics/SVG/1.1/DTD/svg11.dtd">
<svg width="100px" height="100px" version="1.1" xmlns="http://www.w3.org/2000/svg" xmlns:xlink="http://www.w3.org/1999/xlink" xml:space="preserve" style="fill-rule:evenodd;clip-rule:evenodd;stroke-linejoin:round;stroke-miterlimit:1.41421;">
    <g>
        <g id="Layer1">
            <path d="M78.0751,50.736L99.5646,50.736C99.569,50.4742 99.5853,50.2153 99.5853,49.9535C99.5853,22.8092 77.5811,0.804997 50.4353,0.804997C23.291,0.804997 1.28827,22.8092 1.28827,49.9535C1.28827,77.0964 23.291,99.102 50.4353,99.102C72.4203,99.102 91.0268,84.6668 97.3088,64.7615L72.4158,64.7615C72.9942,66.1046 73.6021,67.322 73.5311,68.6414C73.3714,71.6323 66.6056,74.9397 66.6056,74.9397C66.6056,74.9397 67.3911,78.4025 67.3911,79.3447C67.3911,80.2914 65.1856,80.7632 64.557,81.0783C63.9298,81.3919 63.6118,83.9124 62.8263,84.5425C62.0409,85.1741 58.8873,88.6369 57.1567,90.0539C55.4246,91.471 53.1688,91.3201 51.592,91.3201C50.0167,91.3201 48.5005,86.285 46.8527,83.3636C45.4165,76.018 44.2479,73.5227 42.1993,72.2787C39.4376,70.6057 44.9417,68.4284 45.1798,64.6565C45.3499,61.8712 37.6345,55.2608 39.9997,49.7479C41.115,47.1386 36.7308,47.8694 34.5268,46.4508C32.3243,45.0353 28.9769,47.8575 27.5584,48.3323C26.1428,48.8057 24.569,47.3871 22.3621,48.1726C20.1566,48.9595 18.8978,46.7555 15.9099,43.2913C12.9161,39.8271 12.1291,38.5683 12.1291,36.5241C12.1291,34.4754 14.1734,32.1117 13.3894,28.9655C12.601,25.8149 19.6862,21.0904 22.5174,17.7859C24.6548,15.2965 24.8249,14.8601 24.7776,14.7965C24.745,14.795 24.7243,14.795 24.7243,14.795C24.7243,14.795 24.7628,14.7743 24.7776,14.7965C25.1976,14.8113 28.2329,14.8853 30.8644,14.0051C33.6999,13.0614 41.5736,12.9061 41.5736,12.9061C41.5736,12.9061 40.4686,16.5271 42.3575,17.3155C44.2479,18.101 48.5005,20.7798 49.6025,20.7798C50.703,20.7798 50.3895,19.6748 50.3895,19.0447C50.3895,18.416 54.4823,17.7859 57.1567,19.0447C59.834,20.3035 62.6681,19.0447 64.3987,19.0447C66.1308,19.0447 64.3987,23.2973 64.3987,23.2973C64.3987,23.2973 67.3911,27.547 68.4945,30.3811C69.598,33.2167 74.6346,38.413 75.5783,40.4587C76.5235,42.5059 84.4637,37.916 84.869,39.1984C85.2713,40.4824 83.2937,44.7882 80.1445,48.5675C79.4744,49.3722 78.7748,50.0763 78.0751,50.736" style="fill:rgb(22,118,188);fill-rule:nonzero;"/>
        </g>
    </g>
</svg>
