<?xml version="1.0" standalone="no"?>
<!DOCTYPE svg PUBLIC "-//W3C//DTD SVG 1.1//EN" "http://www.w3.org/Graphics/SVG/1.1/DTD/svg11.dtd">
<svg width="300px" height="125px" version="1.1" xmlns="http://www.w3.org/2000/svg" xmlns:xlink="http://www.w3.org/1999/xlink" xml:space="preserve" style="fill-rule:evenodd;clip-rule:evenodd;stroke-linejoin:round;stroke-miterlimit:1.41421;">
    <g>
        <g id="Layer1">
            <g>
                <path d="M299.933,124.702L0.206748,124.702L0.206748,0.351761L299.933,0.351761L299.933,124.702ZM105.129,89.2467L103.309,93.2496L101.171,93.2496L108.791,76.6097L116.412,93.2496L114.274,93.2496L112.454,89.2467L105.129,89.2467ZM268.291,89.2467L266.469,93.2496L264.33,93.2496L271.951,76.6097L279.572,93.2496L277.433,93.2496L275.613,89.2467L268.291,89.2467ZM180.847,93.2494L178.433,93.2494L173.734,86.4959L172.909,86.4959L172.909,93.2494L170.918,93.2494L170.918,77.2871L173.331,77.2871C174.75,77.2871 176.274,77.3088 177.544,78.0288C178.878,78.8118 179.641,80.3147 179.641,81.8394C179.641,84.1253 178.116,86.0288 175.808,86.3047L180.847,93.2494ZM205.908,93.249L203.917,93.249L203.917,77.2879L205.908,77.2879L205.908,93.249ZM141.284,79.1074L141.284,83.5956L146.83,83.5956L146.83,85.4168L141.284,85.4168L141.284,93.2486L139.294,93.2486L139.294,77.2874L147.021,77.2874L147.021,79.1074L141.284,79.1074ZM242.084,80.3359C240.941,79.3194 239.376,78.77 237.871,78.77C234.293,78.77 231.563,81.7541 231.563,85.29C231.563,88.7823 234.273,91.7665 237.828,91.7665C239.396,91.7665 240.898,91.1747 242.084,90.1159L242.084,92.4658C240.857,93.1858 239.291,93.5876 237.893,93.5876C233.342,93.5876 229.573,89.9682 229.573,85.3529C229.573,80.6323 233.361,76.9488 238.061,76.9488C239.459,76.9488 240.876,77.2876 242.084,78.0282L242.084,80.3359ZM108.791,80.9708L105.955,87.4279L111.629,87.4279L108.791,80.9708ZM271.951,80.9708L269.114,87.4279L274.789,87.4279L271.951,80.9708ZM172.909,84.8453L173.543,84.8453C175.575,84.8453 177.777,84.4641 177.777,81.9229C177.777,79.4253 175.407,79.0647 173.438,79.0647L172.909,79.0647L172.909,84.8453ZM247.672,63.0386L239.213,63.0386L239.213,46.1708L236.471,46.1708L236.471,39.1998L239.213,39.1998L239.213,32.0434L247.672,32.0434L247.672,39.1998L252.459,39.1998L252.459,46.1708L247.672,46.1708L247.672,63.0386ZM232.848,63.038L224.392,63.038L224.392,24.4686L232.848,24.4686L232.848,63.038ZM73.846,63.1592L90.4756,63.1592C90.479,62.9566 90.4916,62.7551 90.4916,62.5537C90.4916,41.5469 73.4636,24.5189 52.4568,24.5189C31.4511,24.5189 14.4243,41.5469 14.4243,62.5537C14.4243,83.5571 31.4511,100.586 52.4568,100.586C69.4699,100.586 83.8686,89.4154 88.73,74.0106L69.4665,74.0106C69.9141,75.0511 70.3845,75.9931 70.3296,77.0142C70.2059,79.3298 64.9703,81.8882 64.9703,81.8882C64.9703,81.8882 65.5781,84.5678 65.5781,85.2981C65.5781,86.0284 63.8714,86.3947 63.3849,86.6385C62.8996,86.8812 62.6535,88.8328 62.0457,89.3193C61.4378,89.8081 58.9974,92.4866 57.6582,93.5832C56.3178,94.6809 54.5722,94.5653 53.3519,94.5653C52.1329,94.5653 50.9596,90.6677 49.6845,88.4081C48.573,82.7238 47.6687,80.7916 46.0834,79.8289C43.9463,78.5343 48.2056,76.8505 48.3898,73.9305C48.5215,71.7751 42.5509,66.6596 44.3812,62.3934C45.2443,60.3742 41.8515,60.9397 40.146,59.842C38.4416,58.7465 35.8512,60.9305 34.7535,61.298C33.6581,61.6643 32.4401,60.5665 30.7323,61.1744C29.0256,61.7833 28.0515,60.0778 25.7393,57.397C23.4225,54.7173 22.8135,53.7421 22.8135,52.1602C22.8135,50.5748 24.3955,48.7456 23.7888,46.3109C23.1787,43.8728 28.6616,40.2179 30.8525,37.6596C32.5065,35.732 32.6382,35.3954 32.6015,35.3462C32.5763,35.3451 32.5603,35.3439 32.5603,35.3439C32.5603,35.3439 32.5901,35.3302 32.6015,35.3462C32.9266,35.3577 35.2755,35.4149 37.3118,34.735C39.5061,34.0035 45.5992,33.8834 45.5992,33.8834C45.5992,33.8834 44.7441,36.6855 46.2058,37.2944C47.6687,37.9045 50.9596,39.9752 51.8124,39.9752C52.664,39.9752 52.4213,39.1213 52.4213,38.6337C52.4213,38.1472 55.5886,37.6596 57.6582,38.6337C59.73,39.6078 61.9232,38.6337 63.2624,38.6337C64.6028,38.6337 63.2624,41.9246 63.2624,41.9246C63.2624,41.9246 65.5781,45.2144 66.432,47.4064C67.2859,49.5995 71.1835,53.6219 71.9138,55.205C72.6452,56.7892 78.7898,53.2373 79.1034,54.2308C79.4147,55.2233 77.8843,58.5565 75.4473,61.4788C74.9288,62.1027 74.3874,62.6475 73.846,63.1592ZM123.988,52.8096L106.189,52.8096C106.189,56.2493 108.001,58.1083 111.487,58.1083C113.3,58.1083 114.602,57.5027 115.53,55.9231L123.663,55.9231C122.314,61.5468 116.971,64.1017 111.533,64.1017C103.633,64.1017 97.7315,59.6398 97.7315,51.4154C97.7315,43.4692 103.169,38.6822 110.929,38.6822C119.201,38.6822 123.988,43.7943 123.988,51.926L123.988,52.8096ZM188.841,52.5369L171.043,52.5369C171.043,55.9766 172.856,57.8355 176.339,57.8355C178.152,57.8355 179.455,57.23 180.384,55.6492L188.516,55.6492C187.168,61.2729 181.824,63.8289 176.385,63.8289C168.488,63.8289 162.585,59.3671 162.585,51.1427C162.585,43.1976 168.023,38.4095 175.782,38.4095C184.056,38.4095 188.841,43.5215 188.841,51.652L188.841,52.5369ZM199.715,51.1426C199.715,54.1633 201.712,56.4858 205.153,56.4858C208.59,56.4858 210.589,54.1633 210.589,51.1426C210.589,48.2145 208.59,45.7523 205.153,45.7523C201.712,45.7523 199.715,48.2145 199.715,51.1426ZM116.134,47.9299C115.715,45.6532 113.625,44.1663 111.347,44.1663C108.885,44.1663 106.84,45.4666 106.329,47.9299L116.134,47.9299ZM180.988,47.6572C180.57,45.3804 178.478,43.8935 176.201,43.8935C173.738,43.8935 171.694,45.195 171.182,47.6572L180.988,47.6572ZM263.609,24.4689L263.609,42.2203L263.703,42.2203C265.655,39.6173 268.024,38.4097 271.324,38.4097C277.366,38.4097 280.293,42.4057 280.293,48.4461L280.293,63.0382L271.834,63.0382L271.834,50.8178C271.834,48.0294 271.418,45.1472 268.024,45.1472C264.678,45.1472 263.609,48.0294 263.609,50.8178L263.609,63.0382L255.152,63.0382L255.152,24.4689L263.609,24.4689ZM218.769,63.039L210.312,63.039L210.312,60.3903L210.218,60.3903C208.73,62.7597 205.802,63.8288 203.016,63.8288C195.951,63.8288 190.978,57.9281 190.978,51.0968C190.978,44.2643 195.858,38.4093 202.922,38.4093C205.663,38.4093 208.544,39.4315 210.312,41.524L210.312,39.1992L218.769,39.1992L218.769,63.039ZM149.48,41.5236L149.48,27.9994L158.589,27.9994L158.589,63.0387L149.48,63.0387L149.48,48.68L136.329,48.68L136.329,63.0387L127.221,63.0387L127.221,27.9994L136.329,27.9994L136.329,41.5236L149.48,41.5236Z" style="fill:rgb(22,118,188);"/>
            </g>
        </g>
    </g>
</svg>
